<svg width="183" height="23" viewBox="0 0 183 23" fill="none" xmlns="http://www.w3.org/2000/svg">
<path d="M182.354 4.35356C182.549 4.1583 182.549 3.84172 182.354 3.64646L179.172 0.464476C178.976 0.269214 178.66 0.269214 178.464 0.464476C178.269 0.659738 178.269 0.976321 178.464 1.17158L181.293 4.00001L178.464 6.82844C178.269 7.0237 178.269 7.34028 178.464 7.53554C178.66 7.73081 178.976 7.73081 179.172 7.53554L182.354 4.35356ZM61 4.5L182 4.50001L182 3.50001L61 3.5L61 4.5Z" fill="black"/>
<path d="M0.646447 18.6464C0.451184 18.8417 0.451184 19.1583 0.646447 19.3536L3.82843 22.5355C4.02369 22.7308 4.34027 22.7308 4.53553 22.5355C4.7308 22.3403 4.7308 22.0237 4.53553 21.8284L1.70711 19L4.53553 16.1716C4.7308 15.9763 4.7308 15.6597 4.53553 15.4645C4.34027 15.2692 4.02369 15.2692 3.82843 15.4645L0.646447 18.6464ZM137 18.5L1 18.5V19.5L137 19.5V18.5Z" fill="black"/>
</svg>
